<svg width="28" height="50" viewBox="0 0 28 50" fill="none" xmlns="http://www.w3.org/2000/svg">
<g clip-path="url(#clip0_42_129)">
<path d="M24.5184 0H3.48136C1.46802 0 -0.157227 1.63253 -0.157227 3.64223V46.3614C-0.157227 48.3693 1.46802 50 3.48136 50H24.5184C26.5281 50 28.157 48.3693 28.157 46.3614V3.64223C28.157 1.63253 26.5281 0 24.5184 0ZM8.80895 2.21194H19.1945C19.4569 2.21194 19.67 2.60367 19.67 3.08833C19.67 3.57299 19.4569 3.96655 19.1945 3.96655H8.80895C8.54476 3.96655 8.33523 3.57299 8.33523 3.08833C8.33523 2.60367 8.54476 2.21194 8.80895 2.21194ZM14.0017 46.4051C12.7208 46.4051 11.6786 45.3629 11.6786 44.0802C11.6786 42.7975 12.7208 41.759 14.0017 41.759C15.279 41.759 16.3212 42.7975 16.3212 44.0802C16.3212 45.3629 15.279 46.4051 14.0017 46.4051ZM25.4313 38.4447H2.57034V6.14569H25.4313V38.4447Z" fill="black"/>
</g>
<defs>
<clipPath id="clip0_42_129">
<rect width="28" height="50" fill="white"/>
</clipPath>
</defs>
</svg>
