<svg width="11" height="23" viewBox="0 0 11 23" fill="none" xmlns="http://www.w3.org/2000/svg">
<path d="M8.44004 5.06001H10.54C10.7719 5.06001 10.96 4.85393 10.96 4.60001V1.50099C10.96 1.25995 10.7908 1.05939 10.5715 1.04237C9.90332 0.990393 8.59796 0.920013 7.65926 0.920013C5.08004 0.920013 3.40004 2.61281 3.40004 5.68929V8.74001H0.460039C0.228199 8.74001 0.0400391 8.94609 0.0400391 9.20001V12.42C0.0400391 12.6739 0.228199 12.88 0.460039 12.88H3.40004V21.62C3.40004 21.8739 3.5882 22.08 3.82004 22.08H6.76004C6.99188 22.08 7.18004 21.8739 7.18004 21.62V12.88H10.2133C10.4275 12.88 10.6072 12.7038 10.6308 12.4706L10.9575 9.25061C10.9852 8.97829 10.7904 8.74001 10.54 8.74001H7.18004V6.44001C7.18004 5.67779 7.7441 5.06001 8.44004 5.06001Z" fill="black"/>
</svg>
