<svg width="18" height="18" viewBox="0 0 18 18" fill="none" xmlns="http://www.w3.org/2000/svg">
<g clip-path="url(#clip0_178_87)">
<path d="M0.9 0H17.1C17.3387 0 17.5676 0.105357 17.7364 0.292893C17.9052 0.48043 18 0.734784 18 1V17C18 17.2652 17.9052 17.5196 17.7364 17.7071C17.5676 17.8946 17.3387 18 17.1 18H0.9C0.661305 18 0.432387 17.8946 0.263604 17.7071C0.0948211 17.5196 0 17.2652 0 17V1C0 0.734784 0.0948211 0.48043 0.263604 0.292893C0.432387 0.105357 0.661305 0 0.9 0ZM9.054 8.683L3.2832 3.238L2.1177 4.762L9.0657 11.317L15.8886 4.757L14.7114 3.244L9.0549 8.683H9.054Z" fill="white"/>
</g>
<defs>
<clipPath id="clip0_178_87">
<rect width="18" height="18" fill="white"/>
</clipPath>
</defs>
</svg>
