<svg width="32" height="29" viewBox="0 0 32 29" fill="none" xmlns="http://www.w3.org/2000/svg">
<path fill-rule="evenodd" clip-rule="evenodd" d="M20 14.5714H17.3333V12.2857C17.3333 11.6537 16.736 11.1429 16 11.1429C15.264 11.1429 14.6667 11.6537 14.6667 12.2857V15.7143C14.6667 16.3463 15.264 16.8571 16 16.8571H20C20.736 16.8571 21.3333 16.3463 21.3333 15.7143C21.3333 15.0823 20.736 14.5714 20 14.5714M16 23.4286C11.0373 23.4286 7 19.968 7 15.7143C7 11.4606 11.0373 8 16 8C20.9627 8 25 11.4606 25 15.7143C25 19.968 20.9627 23.4286 16 23.4286M17.3173 5.49486C17.32 5.47086 17.3333 5.45257 17.3333 5.42857V4.28571H18.6667C19.4027 4.28571 20 3.77486 20 3.14286C20 2.51086 19.4027 2 18.6667 2H13.3333C12.5973 2 12 2.51086 12 3.14286C12 3.77486 12.5973 4.28571 13.3333 4.28571H14.6667V5.42857C14.6667 5.45257 14.68 5.47086 14.6827 5.49486C8.684 6.05943 4 10.4251 4 15.7143C4 21.3863 9.384 26 16 26C22.616 26 28 21.3863 28 15.7143C28 10.4251 23.316 6.05943 17.3173 5.49486" fill="#6C6C72"/>
<mask id="mask0_95_1067" style="mask-type:luminance" maskUnits="userSpaceOnUse" x="4" y="2" width="24" height="24">
<path fill-rule="evenodd" clip-rule="evenodd" d="M20 14.5714H17.3333V12.2857C17.3333 11.6537 16.736 11.1429 16 11.1429C15.264 11.1429 14.6667 11.6537 14.6667 12.2857V15.7143C14.6667 16.3463 15.264 16.8571 16 16.8571H20C20.736 16.8571 21.3333 16.3463 21.3333 15.7143C21.3333 15.0823 20.736 14.5714 20 14.5714M16 23.4286C11.0373 23.4286 7 19.968 7 15.7143C7 11.4606 11.0373 8 16 8C20.9627 8 25 11.4606 25 15.7143C25 19.968 20.9627 23.4286 16 23.4286M17.3173 5.49486C17.32 5.47086 17.3333 5.45257 17.3333 5.42857V4.28571H18.6667C19.4027 4.28571 20 3.77486 20 3.14286C20 2.51086 19.4027 2 18.6667 2H13.3333C12.5973 2 12 2.51086 12 3.14286C12 3.77486 12.5973 4.28571 13.3333 4.28571H14.6667V5.42857C14.6667 5.45257 14.68 5.47086 14.6827 5.49486C8.684 6.05943 4 10.4251 4 15.7143C4 21.3863 9.384 26 16 26C22.616 26 28 21.3863 28 15.7143C28 10.4251 23.316 6.05943 17.3173 5.49486" fill="white"/>
</mask>
<g mask="url(#mask0_95_1067)">
<rect y="0.857147" width="32" height="27.4286" fill="#6C6C72"/>
</g>
</svg>
