<svg width="18" height="18" viewBox="0 0 18 18" fill="none" xmlns="http://www.w3.org/2000/svg">
<g clip-path="url(#clip0_112_2171)">
<path d="M18.1457 2.65599C17.4586 2.99368 16.73 3.21546 15.9839 3.31399C16.7703 2.79142 17.3589 1.969 17.6399 0.999988C16.9019 1.48799 16.0928 1.82999 15.2495 2.01499C14.6831 1.34157 13.9322 0.894951 13.1138 0.744572C12.2953 0.594194 11.4551 0.748479 10.7237 1.18344C9.99226 1.6184 9.41067 2.30967 9.06933 3.14978C8.72798 3.98989 8.646 4.93177 8.83612 5.82899C7.33952 5.74564 5.87542 5.31351 4.53888 4.56065C3.20234 3.80779 2.02324 2.75104 1.07813 1.45899C0.743586 2.09744 0.567785 2.82321 0.568725 3.56199C0.568725 5.01199 1.23293 6.29299 2.24273 7.04299C1.64513 7.02208 1.06069 6.84277 0.538125 6.51999V6.57199C0.538306 7.53769 0.839058 8.4736 1.38939 9.22105C1.93972 9.96849 2.70576 10.4815 3.55763 10.673C3.00288 10.84 2.4212 10.8646 1.85663 10.745C2.09681 11.5762 2.56493 12.3032 3.19546 12.8241C3.82598 13.345 4.58734 13.6338 5.37293 13.65C4.59216 14.3313 3.69818 14.835 2.74212 15.1322C1.78605 15.4293 0.78664 15.5142 -0.198975 15.382C1.52155 16.6114 3.52441 17.2641 5.57002 17.262C12.4937 17.262 16.28 10.889 16.28 5.36199C16.28 5.18199 16.2755 4.99999 16.2683 4.82199C17.0053 4.23016 17.6414 3.49701 18.1466 2.65699L18.1457 2.65599Z" fill="white"/>
</g>
<defs>
<clipPath id="clip0_112_2171">
<rect width="18" height="18" fill="white"/>
</clipPath>
</defs>
</svg>
