<svg width="20" height="18" viewBox="0 0 20 18" fill="none" xmlns="http://www.w3.org/2000/svg">
<g clip-path="url(#clip0_7_3)">
<path d="M20.1621 2.65599C19.3986 2.99368 18.589 3.21546 17.7601 3.31399C18.6338 2.79142 19.2878 1.969 19.6001 0.999988C18.7801 1.48799 17.8811 1.82999 16.9441 2.01499C16.3147 1.34157 15.4804 0.894951 14.571 0.744572C13.6616 0.594194 12.728 0.748479 11.9153 1.18344C11.1026 1.6184 10.4564 2.30967 10.0772 3.14978C9.69789 3.98989 9.6068 4.93177 9.81805 5.82899C8.15516 5.74564 6.52838 5.31351 5.04334 4.56065C3.55829 3.80779 2.24818 2.75104 1.19805 1.45899C0.826343 2.09744 0.631008 2.82321 0.632053 3.56199C0.632053 5.01199 1.37005 6.29299 2.49205 7.04299C1.82806 7.02208 1.17869 6.84277 0.598053 6.51999V6.57199C0.598253 7.53769 0.932422 8.4736 1.5439 9.22105C2.15538 9.96849 3.00653 10.4815 3.95305 10.673C3.33667 10.84 2.69036 10.8646 2.06305 10.745C2.32992 11.5762 2.85006 12.3032 3.55064 12.8241C4.25123 13.345 5.09718 13.6338 5.97005 13.65C5.10253 14.3313 4.10923 14.835 3.04693 15.1322C1.98464 15.4293 0.87418 15.5142 -0.220947 15.382C1.69075 16.6114 3.91615 17.2641 6.18905 17.262C13.8821 17.262 18.0891 10.889 18.0891 5.36199C18.0891 5.18199 18.0841 4.99999 18.0761 4.82199C18.8949 4.23016 19.6017 3.49701 20.1631 2.65699L20.1621 2.65599Z" fill="#09121F"/>
</g>
<defs>
<clipPath id="clip0_7_3">
<rect width="20" height="18" fill="white"/>
</clipPath>
</defs>
</svg>
