<svg width="18" height="18" viewBox="0 0 18 18" fill="none" xmlns="http://www.w3.org/2000/svg">
<g clip-path="url(#clip0_112_2172)">
<path d="M17.5887 2.81025C18 4.815 18 9 18 9C18 9 18 13.185 17.5887 15.1898C17.3601 16.2979 16.6914 17.1698 15.8445 17.4645C14.3064 18 9 18 9 18C9 18 3.6963 18 2.1555 17.4645C1.305 17.1653 0.6372 16.2945 0.4113 15.1898C2.68221e-08 13.185 0 9 0 9C0 9 2.68221e-08 4.815 0.4113 2.81025C0.6399 1.70213 1.3086 0.83025 2.1555 0.5355C3.6963 -2.01166e-07 9 0 9 0C9 0 14.3064 -2.01166e-07 15.8445 0.5355C16.695 0.83475 17.3628 1.7055 17.5887 2.81025ZM7.2 12.9375L12.6 9L7.2 5.0625V12.9375Z" fill="white"/>
</g>
<defs>
<clipPath id="clip0_112_2172">
<rect width="18" height="18" fill="white"/>
</clipPath>
</defs>
</svg>
