<svg width="178" height="178" viewBox="0 0 178 178" fill="none" xmlns="http://www.w3.org/2000/svg">
<mask id="path-1-inside-1_135_930" fill="white">
<path d="M176.324 89C177.25 89 178.002 89.7507 177.984 90.6761C177.584 111.929 169.588 132.36 155.412 148.249C141.236 164.139 121.846 174.405 100.776 177.217C99.8586 177.34 99.0273 176.678 98.9221 175.759C98.8169 174.839 99.4777 174.01 100.395 173.887C120.648 171.169 139.283 161.293 152.911 146.018C166.539 130.743 174.232 111.106 174.632 90.676C174.65 89.7507 175.399 89 176.324 89Z"/>
</mask>
<path d="M176.324 89C177.25 89 178.002 89.7507 177.984 90.6761C177.584 111.929 169.588 132.36 155.412 148.249C141.236 164.139 121.846 174.405 100.776 177.217C99.8586 177.34 99.0273 176.678 98.9221 175.759C98.8169 174.839 99.4777 174.01 100.395 173.887C120.648 171.169 139.283 161.293 152.911 146.018C166.539 130.743 174.232 111.106 174.632 90.676C174.65 89.7507 175.399 89 176.324 89Z" stroke="#5956E9" stroke-width="8" mask="url(#path-1-inside-1_135_930)"/>
<mask id="path-2-inside-2_135_930" fill="white">
<path d="M89 1.67588C89 0.750332 89.7507 -0.00162135 90.6761 0.0157889C111.929 0.415782 132.36 8.41245 148.249 22.5884C164.139 36.7643 174.405 56.1538 177.217 77.224C177.34 78.1414 176.678 78.9727 175.759 79.0779C174.839 79.183 174.01 78.5223 173.887 77.605C171.169 57.3524 161.293 38.7174 146.018 25.0894C130.743 11.4614 111.106 3.76768 90.676 3.36813C89.7507 3.35003 89 2.60144 89 1.67588Z"/>
</mask>
<path d="M89 1.67588C89 0.750332 89.7507 -0.00162135 90.6761 0.0157889C111.929 0.415782 132.36 8.41245 148.249 22.5884C164.139 36.7643 174.405 56.1538 177.217 77.224C177.34 78.1414 176.678 78.9727 175.759 79.0779C174.839 79.183 174.01 78.5223 173.887 77.605C171.169 57.3524 161.293 38.7174 146.018 25.0894C130.743 11.4614 111.106 3.76768 90.676 3.36813C89.7507 3.35003 89 2.60144 89 1.67588Z" stroke="#5956E9" stroke-width="8" mask="url(#path-2-inside-2_135_930)"/>
<mask id="path-3-inside-3_135_930" fill="white">
<path d="M1.67588 89C0.750328 89 -0.00162528 88.2493 0.0157849 87.3239C0.415777 66.0706 8.41245 45.6402 22.5884 29.7506C36.7643 13.8611 56.1538 3.59483 77.224 0.782541C78.1414 0.660089 78.9727 1.32188 79.0779 2.24143C79.183 3.16099 78.5223 3.99003 77.605 4.11315C57.3524 6.83148 38.7174 16.7065 25.0894 31.982C11.4614 47.2574 3.76768 66.8937 3.36813 87.324C3.35003 88.2494 2.60143 89 1.67588 89Z"/>
</mask>
<path d="M1.67588 89C0.750328 89 -0.00162528 88.2493 0.0157849 87.3239C0.415777 66.0706 8.41245 45.6402 22.5884 29.7506C36.7643 13.8611 56.1538 3.59483 77.224 0.782541C78.1414 0.660089 78.9727 1.32188 79.0779 2.24143C79.183 3.16099 78.5223 3.99003 77.605 4.11315C57.3524 6.83148 38.7174 16.7065 25.0894 31.982C11.4614 47.2574 3.76768 66.8937 3.36813 87.324C3.35003 88.2494 2.60143 89 1.67588 89Z" stroke="#5956E9" stroke-width="8" mask="url(#path-3-inside-3_135_930)"/>
<mask id="path-4-inside-4_135_930" fill="white">
<path d="M89 176.324C89 177.25 88.2493 178.002 87.3239 177.984C66.0706 177.584 45.6401 169.588 29.7506 155.412C13.8611 141.236 3.59481 121.846 0.782527 100.776C0.660076 99.8586 1.32186 99.0273 2.24142 98.9221C3.16098 98.8169 3.99002 99.4777 4.11314 100.395C6.83146 120.648 16.7065 139.283 31.9819 152.911C47.2573 166.539 66.8937 174.232 87.324 174.632C88.2493 174.65 89 175.399 89 176.324Z"/>
</mask>
<path d="M89 176.324C89 177.25 88.2493 178.002 87.3239 177.984C66.0706 177.584 45.6401 169.588 29.7506 155.412C13.8611 141.236 3.59481 121.846 0.782527 100.776C0.660076 99.8586 1.32186 99.0273 2.24142 98.9221C3.16098 98.8169 3.99002 99.4777 4.11314 100.395C6.83146 120.648 16.7065 139.283 31.9819 152.911C47.2573 166.539 66.8937 174.232 87.324 174.632C88.2493 174.65 89 175.399 89 176.324Z" stroke="#5956E9" stroke-width="8" mask="url(#path-4-inside-4_135_930)"/>
</svg>
